# xmcd CD database file
#
# Track frame offsets:
#	182
#	13240
#	38182
#	60642
#	81005
#	98455
#	116440
#	132605
#	148825
#	166922
#	184352
#	206707
#	227092
#	244615
#	260707
#	276610
#	292730
#	309537
#	326095
#	339957
#
# Disc length: 4779 seconds
#
# Revision: 1
# Processed by: cddbd v1.5.2PL0 Copyright (c) Steve Scherf et al.
# Submitted via: CDex 1.81
#
DISCID=2c12a914
DTITLE=Various Artist - N-060 Soul Sensation
DYEAR=1994
DGENRE=Pop
TTITLE0=Earth, Wind and Fire - Shining Star
TTITLE1=Jermaine Jackson - Do What You Do
TTITLE2=Pasadenas - Enchanted Lady
TTITLE3=Four Tops - Loco In Acopulco
TTITLE4=Cameo - Single Life
TTITLE5=Kool and The Gang - Cherish
TTITLE6=James Brown - The Payback Mix
TTITLE7=Junior - Mama Used To Say
TTITLE8=Fat Boys - Wipeout
TTITLE9=Billy Ocean - Suddenly
TTITLE10=Phil Bailey - Walking On The Chinese Wall
TTITLE11=Caron Wheeler - Living In The Night
TTITLE12=Dan Hartman - Second Nature
TTITLE13=Yarborough and People - Don't Stop The Music
TTITLE14=Patti Labelle - If You Asked Me To
TTITLE15=Joyce Sims - Come Into My Life
TTITLE16=Jonathan Butler - Lies
TTITLE17=Glen Goldsmith - Dreamin'
TTITLE18=Hall and Oates - Method Of Modern Love
TTITLE19=Marvin Gaye - Sanctified Lady
EXTD=YEAR: 1994
EXTT0=
EXTT1=
EXTT2=
EXTT3=
EXTT4=
EXTT5=
EXTT6=
EXTT7=
EXTT8=
EXTT9=
EXTT10=
EXTT11=
EXTT12=
EXTT13=
EXTT14=
EXTT15=
EXTT16=
EXTT17=
EXTT18=
EXTT19=
PLAYORDER=
